<svg width="103" height="29" viewBox="0 0 103 29" fill="none" xmlns="http://www.w3.org/2000/svg">
<path d="M102.119 25.7805C102.119 27.3603 100.815 28.6399 99.2027 28.6399H3.76024C2.14835 28.6399 0.839966 27.3603 0.839966 25.7805V2.97737C0.839966 1.39833 2.14835 0.114197 3.76024 0.114197H99.2019C100.815 0.114197 102.118 1.39833 102.118 2.97737L102.119 25.7805Z" fill="black"/>
<path d="M23.1278 14.217C23.1058 11.8284 25.1299 10.6664 25.2224 10.6123C24.0761 8.97962 22.2993 8.75655 21.675 8.73876C20.1827 8.58535 18.7352 9.61105 17.9751 9.61105C17.1997 9.61105 16.0291 8.75359 14.7675 8.77878C13.144 8.80324 11.6252 9.72147 10.7922 11.1474C9.07311 14.0547 10.3552 18.3272 12.0022 20.6773C12.8261 21.8282 13.7889 23.1133 15.049 23.0681C16.2818 23.0185 16.7423 22.3003 18.23 22.3003C19.704 22.3003 20.1364 23.0681 21.4216 23.0392C22.7447 23.0185 23.5777 21.8831 24.3727 20.7218C25.3248 19.4026 25.7072 18.1034 25.7224 18.0367C25.6912 18.0263 23.1528 17.0799 23.1278 14.217Z" fill="white"/>
<path d="M20.7001 7.19281C21.3632 6.38278 21.8168 5.28075 21.6909 4.16241C20.7312 4.20392 19.531 4.81089 18.8399 5.60313C18.2285 6.30126 17.6822 7.44553 17.8233 8.52162C18.9014 8.60018 20.0082 7.99024 20.7001 7.19281Z" fill="white"/>
<path d="M40.9691 22.9027H39.2462L38.3024 20.0057H35.022L34.123 22.9027H32.4457L35.6957 13.04H37.7031L40.9691 22.9027ZM38.0179 18.7903L37.1645 16.215C37.0742 15.9519 36.905 15.3323 36.6554 14.357H36.6251C36.5257 14.7765 36.3656 15.396 36.1456 16.215L35.3073 18.7903H38.0179Z" fill="white"/>
<path d="M49.3275 19.2595C49.3275 20.469 48.993 21.425 48.3239 22.1268C47.7245 22.7516 46.9803 23.0636 46.0919 23.0636C45.133 23.0636 44.4441 22.7271 44.0246 22.0542H43.9943V25.8005H42.3768V18.1322C42.3768 17.3719 42.3563 16.5915 42.3169 15.7911H43.7394L43.8296 16.9183H43.86C44.3994 16.069 45.218 15.6451 46.3165 15.6451C47.1753 15.6451 47.8922 15.9764 48.4657 16.6396C49.0408 17.3037 49.3275 18.1767 49.3275 19.2595ZM47.6798 19.3173C47.6798 18.6251 47.5204 18.0544 47.2003 17.6053C46.8506 17.1369 46.381 16.9027 45.7922 16.9027C45.3932 16.9027 45.0306 17.0332 44.7066 17.2903C44.3819 17.5497 44.1695 17.8884 44.0701 18.3079C44.0201 18.5035 43.995 18.6636 43.995 18.7896V19.9754C43.995 20.4927 44.1574 20.9292 44.4821 21.2857C44.8068 21.6421 45.2286 21.82 45.7475 21.82C46.3567 21.82 46.8308 21.5903 47.17 21.1323C47.5098 20.6735 47.6798 20.0688 47.6798 19.3173Z" fill="white"/>
<path d="M57.7007 19.2595C57.7007 20.469 57.3661 21.4251 56.6962 22.1269C56.0977 22.7516 55.3534 23.0636 54.4651 23.0636C53.5061 23.0636 52.8173 22.7272 52.3985 22.0543H52.3682V25.8006H50.7507V18.1323C50.7507 17.3719 50.7302 16.5915 50.6908 15.7911H52.1133L52.2035 16.9184H52.2339C52.7725 16.0691 53.5911 15.6451 54.6904 15.6451C55.5484 15.6451 56.2653 15.9764 56.8404 16.6397C57.4132 17.3037 57.7007 18.1768 57.7007 19.2595ZM56.0529 19.3173C56.0529 18.6251 55.8928 18.0545 55.5727 17.6054C55.2229 17.137 54.7549 16.9028 54.1654 16.9028C53.7656 16.9028 53.4037 17.0332 53.079 17.2904C52.7543 17.5498 52.5426 17.8885 52.4433 18.3079C52.394 18.5036 52.3682 18.6637 52.3682 18.7897V19.9754C52.3682 20.4927 52.5305 20.9293 52.8537 21.2857C53.1784 21.6415 53.6002 21.8201 54.1206 21.8201C54.7298 21.8201 55.204 21.5903 55.5431 21.1323C55.883 20.6736 56.0529 20.0688 56.0529 19.3173Z" fill="white"/>
<path d="M67.0621 20.137C67.0621 20.9759 66.7639 21.6585 66.1654 22.1854C65.5076 22.7613 64.5919 23.0488 63.4153 23.0488C62.3289 23.0488 61.458 22.8443 60.7987 22.4344L61.1735 21.1175C61.8836 21.537 62.6627 21.7474 63.5116 21.7474C64.1208 21.7474 64.595 21.6126 64.9356 21.3443C65.2747 21.076 65.4439 20.7158 65.4439 20.2667C65.4439 19.8665 65.3043 19.5293 65.0244 19.2558C64.7459 18.9824 64.2809 18.7282 63.6315 18.4932C61.8638 17.8492 60.9808 16.9058 60.9808 15.6652C60.9808 14.8544 61.2903 14.1896 61.9101 13.6723C62.5277 13.1543 63.3515 12.8956 64.3818 12.8956C65.3005 12.8956 66.0637 13.052 66.6729 13.364L66.2685 14.6521C65.6996 14.3497 65.0562 14.1985 64.3363 14.1985C63.7673 14.1985 63.3227 14.3356 63.0041 14.6083C62.7348 14.8522 62.5997 15.1493 62.5997 15.5014C62.5997 15.8912 62.7537 16.2136 63.0633 16.467C63.3326 16.7012 63.8219 16.9547 64.532 17.2282C65.4007 17.5698 66.0387 17.9693 66.4491 18.4273C66.858 18.8838 67.0621 19.4552 67.0621 20.137Z" fill="white"/>
<path d="M72.4101 16.9771H70.6273V20.4299C70.6273 21.3081 70.9413 21.7468 71.571 21.7468C71.8601 21.7468 72.0998 21.7224 72.2895 21.6735L72.3342 22.8733C72.0156 22.9897 71.5961 23.0482 71.0764 23.0482C70.4376 23.0482 69.9384 22.8578 69.5781 22.4776C69.2192 22.0966 69.0387 21.4578 69.0387 20.5603V16.9756H67.9766V15.7898H69.0387V14.4877L70.6273 14.0193V15.7898H72.4101V16.9771Z" fill="white"/>
<path d="M80.4539 19.2884C80.4539 20.3816 80.1337 21.279 79.4949 21.9809C78.8251 22.7035 77.9359 23.0636 76.8275 23.0636C75.7594 23.0636 74.9089 22.7175 74.2747 22.0253C73.6405 21.3331 73.3234 20.4594 73.3234 19.4063C73.3234 18.3042 73.6496 17.4016 74.3043 16.6997C74.9575 15.9972 75.839 15.6459 76.9474 15.6459C78.0156 15.6459 78.8751 15.992 79.5238 16.6849C80.1443 17.3571 80.4539 18.2249 80.4539 19.2884ZM78.7757 19.3396C78.7757 18.6837 78.6324 18.1212 78.3418 17.6521C78.0027 17.0844 77.5179 16.8013 76.8898 16.8013C76.2396 16.8013 75.7457 17.0851 75.4066 17.6521C75.116 18.1219 74.9727 18.6933 74.9727 19.3692C74.9727 20.0251 75.116 20.5876 75.4066 21.056C75.7563 21.6237 76.2449 21.9068 76.8753 21.9068C77.4929 21.9068 77.9777 21.6177 78.3274 21.0411C78.6255 20.5631 78.7757 19.9947 78.7757 19.3396Z" fill="white"/>
<path d="M85.7105 17.1806C85.5504 17.1517 85.3797 17.1369 85.2006 17.1369C84.6317 17.1369 84.1916 17.3466 83.8821 17.7668C83.6128 18.1374 83.4778 18.6058 83.4778 19.1712V22.9027H81.8611L81.8762 18.0307C81.8762 17.211 81.8558 16.4647 81.8156 15.7918H83.2244L83.2835 17.1524H83.3283C83.499 16.6848 83.7683 16.3083 84.137 16.0259C84.4974 15.7717 84.8866 15.645 85.3061 15.645C85.4555 15.645 85.5906 15.6554 85.7105 15.6739V17.1806Z" fill="white"/>
<path d="M92.9449 19.0106C92.9449 19.2937 92.926 19.5323 92.8858 19.7272H88.0335C88.0524 20.4298 88.2869 20.9671 88.7375 21.3376C89.1464 21.6689 89.6752 21.8349 90.3246 21.8349C91.043 21.8349 91.6985 21.723 92.288 21.4985L92.5413 22.5953C91.8525 22.8888 91.0392 23.0348 90.1008 23.0348C88.9719 23.0348 88.0858 22.7102 87.441 22.0617C86.7976 21.4132 86.4752 20.5424 86.4752 19.45C86.4752 18.3776 86.7749 17.4846 87.375 16.7724C88.0031 16.012 88.8521 15.6318 89.9202 15.6318C90.9694 15.6318 91.7637 16.012 92.3031 16.7724C92.7302 17.3764 92.9449 18.1234 92.9449 19.0106ZM91.4026 18.6007C91.4132 18.1323 91.3078 17.7277 91.0885 17.386C90.8086 16.9466 90.3784 16.7272 89.7996 16.7272C89.2708 16.7272 88.8407 16.9414 88.5122 17.3712C88.2429 17.7129 88.0828 18.1227 88.0335 18.6H91.4026V18.6007Z" fill="white"/>
<path d="M37.483 6.97285C37.483 7.84514 37.2152 8.50176 36.6803 8.94272C36.1849 9.34959 35.4809 9.5534 34.569 9.5534C34.1169 9.5534 33.7299 9.53413 33.406 9.49559V4.72951C33.8286 4.66281 34.2838 4.62872 34.7754 4.62872C35.644 4.62872 36.2987 4.81326 36.7403 5.18233C37.2349 5.59958 37.483 6.19617 37.483 6.97285ZM36.6447 6.99434C36.6447 6.42888 36.4914 5.99533 36.1849 5.69296C35.8784 5.39132 35.4308 5.24014 34.8414 5.24014C34.591 5.24014 34.3778 5.25644 34.2011 5.29053V8.91382C34.2989 8.92864 34.478 8.93531 34.7382 8.93531C35.3466 8.93531 35.8162 8.77004 36.147 8.43951C36.4778 8.10897 36.6447 7.62725 36.6447 6.99434Z" fill="white"/>
<path d="M41.9275 7.73465C41.9275 8.27196 41.7704 8.71218 41.4564 9.05753C41.1271 9.41253 40.6909 9.58965 40.1462 9.58965C39.6212 9.58965 39.2032 9.41994 38.8914 9.07903C38.5803 8.73886 38.4248 8.30976 38.4248 7.79246C38.4248 7.25145 38.5849 6.80753 38.9065 6.46291C39.2282 6.1183 39.6606 5.94562 40.2053 5.94562C40.7303 5.94562 41.1521 6.11533 41.4715 6.4555C41.775 6.78604 41.9275 7.21291 41.9275 7.73465ZM41.1028 7.75985C41.1028 7.43747 41.0315 7.16104 40.8896 6.93055C40.7227 6.65189 40.4853 6.51257 40.1765 6.51257C39.8571 6.51257 39.6144 6.65189 39.4475 6.93055C39.3048 7.16104 39.2343 7.44192 39.2343 7.77393C39.2343 8.09632 39.3056 8.37275 39.4475 8.60323C39.6197 8.88189 39.8594 9.02122 40.1689 9.02122C40.4724 9.02122 40.7106 8.87967 40.8821 8.59582C41.0292 8.36089 41.1028 8.08224 41.1028 7.75985Z" fill="white"/>
<path d="M47.8876 6.01672L46.7686 9.51031H46.0403L45.5768 7.99326C45.4592 7.61456 45.3636 7.23807 45.2892 6.86455H45.2748C45.2058 7.24845 45.1102 7.62419 44.9873 7.99326L44.4949 9.51031H43.7583L42.7061 6.01672H43.5231L43.9275 7.67755C44.0253 8.07034 44.1058 8.4446 44.1702 8.79885H44.1847C44.2438 8.50685 44.3417 8.13481 44.4798 7.68496L44.9873 6.01747H45.6352L46.1215 7.64939C46.2391 8.04736 46.3347 8.43052 46.4082 8.79959H46.4302C46.4841 8.44015 46.5653 8.057 46.673 7.64939L47.107 6.01747H47.8876V6.01672Z" fill="white"/>
<path d="M52.0097 9.51044H51.2147V7.50945C51.2147 6.89284 50.9749 6.58454 50.4939 6.58454C50.258 6.58454 50.0676 6.66903 49.9197 6.83874C49.7732 7.00846 49.6989 7.20856 49.6989 7.43756V9.5097H48.9038V7.01513C48.9038 6.70831 48.894 6.37555 48.875 6.01537H49.5737L49.6109 6.56157H49.6329C49.7254 6.39185 49.8635 6.25178 50.0448 6.13988C50.2603 6.00944 50.5015 5.94348 50.7655 5.94348C51.0993 5.94348 51.377 6.04872 51.5978 6.25994C51.8724 6.51858 52.0097 6.9047 52.0097 7.41755V9.51044Z" fill="white"/>
<path d="M54.2016 9.51037H53.4073V4.41376H54.2016V9.51037Z" fill="white"/>
<path d="M58.8832 7.73465C58.8832 8.27196 58.7261 8.71218 58.412 9.05753C58.0828 9.41253 57.6458 9.58965 57.1019 9.58965C56.5761 9.58965 56.1581 9.41994 55.8471 9.07903C55.536 8.73886 55.3805 8.30976 55.3805 7.79246C55.3805 7.25145 55.5406 6.80753 55.8622 6.46291C56.1839 6.1183 56.6163 5.94562 57.1603 5.94562C57.686 5.94562 58.1071 6.11533 58.4272 6.4555C58.7307 6.78604 58.8832 7.21291 58.8832 7.73465ZM58.0578 7.75985C58.0578 7.43747 57.9864 7.16104 57.8446 6.93055C57.6784 6.65189 57.4402 6.51257 57.1322 6.51257C56.8121 6.51257 56.5693 6.65189 56.4031 6.93055C56.2605 7.16104 56.19 7.44192 56.19 7.77393C56.19 8.09632 56.2613 8.37275 56.4031 8.60323C56.5754 8.88189 56.8151 9.02122 57.1246 9.02122C57.4281 9.02122 57.6655 8.87967 57.837 8.59582C57.9849 8.36089 58.0578 8.08224 58.0578 7.75985Z" fill="white"/>
<path d="M62.7308 9.51041H62.0169L61.9577 9.10799H61.9357C61.6914 9.42889 61.3432 9.58971 60.891 9.58971C60.5534 9.58971 60.2803 9.48373 60.0747 9.27326C59.8881 9.08205 59.7948 8.84416 59.7948 8.56179C59.7948 8.13491 59.9769 7.80957 60.3433 7.58427C60.709 7.35897 61.2233 7.24855 61.8856 7.25374V7.18852C61.8856 6.72829 61.6383 6.49855 61.1429 6.49855C60.7901 6.49855 60.4791 6.58526 60.2105 6.75719L60.0489 6.24731C60.3812 6.04647 60.7917 5.94568 61.2757 5.94568C62.2103 5.94568 62.6792 6.4274 62.6792 7.39084V8.67741C62.6792 9.02647 62.6966 9.30438 62.7308 9.51041ZM61.9053 8.30982V7.77103C61.0284 7.75621 60.5899 7.99114 60.5899 8.47508C60.5899 8.6574 60.6399 8.79376 60.7423 8.88492C60.8448 8.97607 60.9753 9.02128 61.1308 9.02128C61.3053 9.02128 61.4684 8.96718 61.6171 8.85972C61.7665 8.75152 61.8583 8.61441 61.8925 8.44618C61.9008 8.40838 61.9053 8.36244 61.9053 8.30982Z" fill="white"/>
<path d="M67.2481 9.51037H66.5426L66.5054 8.94935H66.4834C66.2581 9.37622 65.8742 9.58966 65.3348 9.58966C64.9039 9.58966 64.5451 9.4244 64.2606 9.09386C63.9761 8.76333 63.8342 8.33423 63.8342 7.8073C63.8342 7.24183 63.9882 6.78382 64.2978 6.43402C64.5974 6.10793 64.9646 5.94489 65.4016 5.94489C65.8818 5.94489 66.2179 6.10275 66.4091 6.4192H66.4242V4.41376H67.2201V8.56916C67.2201 8.90933 67.2292 9.22282 67.2481 9.51037ZM66.4242 8.03704V7.45453C66.4242 7.35374 66.4167 7.27222 66.4022 7.20996C66.3575 7.0232 66.2611 6.86609 66.1147 6.73936C65.9668 6.61263 65.7885 6.54889 65.5829 6.54889C65.2863 6.54889 65.0541 6.66377 64.8834 6.89425C64.7143 7.12474 64.6285 7.41896 64.6285 7.77839C64.6285 8.12375 64.7097 8.40389 64.8728 8.61955C65.045 8.8493 65.2772 8.96417 65.5677 8.96417C65.8287 8.96417 66.0373 8.86857 66.1959 8.67662C66.3491 8.49949 66.4242 8.28605 66.4242 8.03704Z" fill="white"/>
<path d="M74.0481 7.73465C74.0481 8.27196 73.891 8.71218 73.577 9.05753C73.2477 9.41253 72.8122 9.58965 72.2668 9.58965C71.7426 9.58965 71.3245 9.41994 71.012 9.07903C70.7009 8.73886 70.5454 8.30976 70.5454 7.79246C70.5454 7.25145 70.7055 6.80753 71.0272 6.46291C71.3488 6.1183 71.7812 5.94562 72.3267 5.94562C72.8509 5.94562 73.2735 6.11533 73.5921 6.4555C73.8956 6.78604 74.0481 7.21291 74.0481 7.73465ZM73.2242 7.75985C73.2242 7.43747 73.1529 7.16104 73.011 6.93055C72.8433 6.65189 72.6067 6.51257 72.2971 6.51257C71.9785 6.51257 71.7357 6.65189 71.5681 6.93055C71.4254 7.16104 71.3549 7.44192 71.3549 7.77393C71.3549 8.09632 71.4262 8.37275 71.5681 8.60323C71.7403 8.88189 71.98 9.02122 72.2895 9.02122C72.593 9.02122 72.832 8.87967 73.0034 8.59582C73.1498 8.36089 73.2242 8.08224 73.2242 7.75985Z" fill="white"/>
<path d="M78.3233 9.51044H77.529V7.50945C77.529 6.89284 77.2893 6.58454 76.8075 6.58454C76.5716 6.58454 76.3812 6.66903 76.234 6.83874C76.0868 7.00846 76.0132 7.20856 76.0132 7.43756V9.5097H75.2174V7.01513C75.2174 6.70831 75.2083 6.37555 75.1893 6.01537H75.8873L75.9245 6.56157H75.9465C76.0398 6.39185 76.1778 6.25178 76.3584 6.13988C76.5746 6.00944 76.8151 5.94348 77.0799 5.94348C77.4129 5.94348 77.6906 6.04872 77.9113 6.25994C78.1867 6.51858 78.3233 6.9047 78.3233 7.41755V9.51044Z" fill="white"/>
<path d="M83.6735 6.59856H82.7981V8.2957C82.7981 8.72703 82.9536 8.94269 83.2616 8.94269C83.4042 8.94269 83.5226 8.93083 83.6159 8.90638L83.6364 9.49556C83.4793 9.55336 83.273 9.58227 83.0188 9.58227C82.7048 9.58227 82.4605 9.48889 82.2837 9.30213C82.1062 9.11537 82.0182 8.80114 82.0182 8.36018V6.59856H81.4955V6.01679H82.0182V5.37647L82.7973 5.14673V6.01605H83.6728V6.59856H83.6735Z" fill="white"/>
<path d="M87.8826 9.51037H87.0868V7.52419C87.0868 6.89796 86.8471 6.58447 86.3669 6.58447C85.9982 6.58447 85.7463 6.76604 85.6082 7.12918C85.5847 7.20552 85.571 7.2989 85.571 7.40858V9.50963H84.7767V4.41376H85.571V6.51925H85.5862C85.8366 6.1361 86.1954 5.94489 86.6605 5.94489C86.9897 5.94489 87.2621 6.05013 87.4783 6.26134C87.7476 6.52444 87.8826 6.91574 87.8826 7.43304V9.51037Z" fill="white"/>
<path d="M92.2243 7.59825C92.2243 7.73758 92.2137 7.85467 92.1947 7.95027H89.8103C89.8209 8.29563 89.9347 8.55873 90.1555 8.74104C90.3573 8.90408 90.6175 8.9856 90.9361 8.9856C91.2889 8.9856 91.6105 8.93076 91.9003 8.82034L92.0248 9.35986C91.6856 9.50364 91.2866 9.57553 90.8246 9.57553C90.2708 9.57553 89.8345 9.41619 89.519 9.09751C89.2018 8.77883 89.0448 8.35121 89.0448 7.81465C89.0448 7.28772 89.1912 6.84899 89.4863 6.49918C89.7943 6.12566 90.2108 5.9389 90.7366 5.9389C91.2509 5.9389 91.6416 6.12566 91.9057 6.49918C92.1188 6.79563 92.2243 7.16247 92.2243 7.59825ZM91.4656 7.39741C91.4717 7.16692 91.4194 6.9683 91.3116 6.80081C91.1736 6.58515 90.9634 6.47695 90.6789 6.47695C90.4195 6.47695 90.2078 6.58219 90.0462 6.7934C89.9142 6.96163 89.8361 7.16247 89.8103 7.39741H91.4656Z" fill="white"/>
</svg>
