<svg width="100" height="29" viewBox="0 0 100 29" fill="none" xmlns="http://www.w3.org/2000/svg">
<path d="M95.8513 28.6399H4.54836C2.54061 28.6399 0.89624 27.0344 0.89624 25.0742V3.6799C0.89624 1.71965 2.54061 0.114182 4.54836 0.114182H95.8513C97.859 0.114182 99.5034 1.71965 99.5034 3.6799V25.0742C99.5034 27.0344 97.859 28.6399 95.8513 28.6399Z" fill="black"/>
<path d="M35.5307 7.4193C35.5307 8.01477 35.3481 8.49169 34.9884 8.84737C34.5748 9.26901 34.0361 9.48117 33.376 9.48117C32.7451 9.48117 32.2064 9.26544 31.7645 8.84023C31.3217 8.40878 31.1007 7.87927 31.1007 7.24547C31.1007 6.61166 31.3217 6.08215 31.7645 5.65427C32.2064 5.22549 32.7451 5.00977 33.376 5.00977C33.6901 5.00977 33.9895 5.07306 34.2753 5.19073C34.5602 5.30929 34.7921 5.46974 34.9601 5.66764L34.5784 6.04382C34.2854 5.70597 33.8864 5.53927 33.376 5.53927C32.9158 5.53927 32.5168 5.69617 32.1781 6.01262C31.843 6.32997 31.675 6.74092 31.675 7.24547C31.675 7.75002 31.843 8.16453 32.1781 8.48188C32.5168 8.79477 32.9158 8.95523 33.376 8.95523C33.8644 8.95523 34.2753 8.79477 34.5994 8.47831C34.8131 8.26883 34.9345 7.98 34.9665 7.61095H33.376V7.09571H35.4979C35.5234 7.20714 35.5307 7.315 35.5307 7.4193Z" fill="white" stroke="white" stroke-width="0.0877714" stroke-miterlimit="10"/>
<path d="M38.8974 5.63302H36.9042V6.98799H38.7011V7.50324H36.9042V8.85821H38.8974V9.38326H36.34V5.10797H38.8974V5.63302Z" fill="white" stroke="white" stroke-width="0.0877714" stroke-miterlimit="10"/>
<path d="M41.2732 9.38314H40.709V5.6329H39.4865V5.10785H42.4967V5.6329H41.2732V9.38314Z" fill="white" stroke="white" stroke-width="0.0877714" stroke-miterlimit="10"/>
<path d="M44.6748 9.38314V5.10785H45.2381V9.38314H44.6748Z" fill="white" stroke="white" stroke-width="0.0877714" stroke-miterlimit="10"/>
<path d="M47.7352 9.3832H47.1755V5.63296H45.9484V5.10791H48.9623V5.63296H47.7352V9.3832Z" fill="white" stroke="white" stroke-width="0.0877714" stroke-miterlimit="10"/>
<path d="M54.6617 8.83322C54.2299 9.26557 53.6948 9.48129 53.0566 9.48129C52.4148 9.48129 51.8797 9.26557 51.4479 8.83322C51.0169 8.40177 50.8024 7.87226 50.8024 7.24559C50.8024 6.61892 51.0169 6.08941 51.4479 5.65796C51.8797 5.22561 52.4148 5.00989 53.0566 5.00989C53.6912 5.00989 54.2262 5.22561 54.6581 5.66152C55.0927 6.09654 55.3073 6.62248 55.3073 7.24559C55.3073 7.87226 55.0927 8.40177 54.6617 8.83322ZM51.8651 8.47487C52.1902 8.79489 52.5855 8.95535 53.0566 8.95535C53.5241 8.95535 53.9231 8.79489 54.2445 8.47487C54.5686 8.15485 54.733 7.7439 54.733 7.24559C54.733 6.74728 54.5686 6.33633 54.2445 6.01631C53.9231 5.69629 53.5241 5.53583 53.0566 5.53583C52.5855 5.53583 52.1902 5.69629 51.8651 6.01631C51.541 6.33633 51.3767 6.74728 51.3767 7.24559C51.3767 7.7439 51.541 8.15485 51.8651 8.47487Z" fill="white" stroke="white" stroke-width="0.0877714" stroke-miterlimit="10"/>
<path d="M56.0989 9.38314V5.10785H56.7836L58.9128 8.43288H58.9375L58.9128 7.61098V5.10785H59.4762V9.38314H58.8882L56.6586 5.89409H56.6339L56.6586 6.71955V9.38314H56.0989Z" fill="white" stroke="white" stroke-width="0.0877714" stroke-miterlimit="10"/>
<path d="M50.6632 15.6268C48.9477 15.6268 47.5462 16.9016 47.5462 18.6604C47.5462 20.4049 48.9477 21.693 50.6632 21.693C52.3825 21.693 53.784 20.4049 53.784 18.6604C53.784 16.9016 52.3825 15.6268 50.6632 15.6268ZM50.6632 20.4985C49.7219 20.4985 48.9121 19.7399 48.9121 18.6604C48.9121 17.5666 49.7219 16.8214 50.6632 16.8214C51.6046 16.8214 52.4181 17.5666 52.4181 18.6604C52.4181 19.7399 51.6046 20.4985 50.6632 20.4985ZM43.8621 15.6268C42.1429 15.6268 40.745 16.9016 40.745 18.6604C40.745 20.4049 42.1429 21.693 43.8621 21.693C45.5804 21.693 46.9792 20.4049 46.9792 18.6604C46.9792 16.9016 45.5804 15.6268 43.8621 15.6268ZM43.8621 20.4985C42.9198 20.4985 42.1073 19.7399 42.1073 18.6604C42.1073 17.5666 42.9198 16.8214 43.8621 16.8214C44.8034 16.8214 45.6133 17.5666 45.6133 18.6604C45.6133 19.7399 44.8034 20.4985 43.8621 20.4985ZM35.769 16.5566V17.8456H38.9217C38.8295 18.5659 38.583 19.0954 38.205 19.4644C37.7448 19.9102 37.0281 20.4049 35.769 20.4049C33.8288 20.4049 32.3095 18.8761 32.3095 16.9818C32.3095 15.0875 33.8288 13.5587 35.769 13.5587C36.8181 13.5587 37.5814 13.959 38.1447 14.4778L39.0751 13.5694C38.2871 12.8349 37.239 12.2706 35.769 12.2706C33.1084 12.2706 30.8724 14.3842 30.8724 16.9818C30.8724 19.5794 33.1084 21.693 35.769 21.693C37.207 21.693 38.2871 21.233 39.1363 20.3701C40.0064 19.5206 40.2775 18.3261 40.2775 17.3616C40.2775 17.062 40.252 16.7866 40.2063 16.5566H35.769ZM68.8626 17.5559C68.6061 16.8775 67.8145 15.6268 66.2021 15.6268C64.6043 15.6268 63.274 16.8561 63.274 18.6604C63.274 20.3594 64.5906 21.693 66.3555 21.693C67.7825 21.693 68.6061 20.8435 68.9448 20.3487L67.8857 19.6597C67.5324 20.1642 67.0512 20.4985 66.3555 20.4985C65.6643 20.4985 65.1685 20.1892 64.8508 19.5794L69.006 17.9009L68.8626 17.5559ZM64.6262 18.5659C64.5906 17.3963 65.5566 16.7973 66.2487 16.7973C66.791 16.7973 67.2512 17.062 67.4045 17.4409L64.6262 18.5659ZM61.2489 21.5085H62.6148V12.5942H61.2489V21.5085ZM59.012 16.3025H58.9663C58.6595 15.9478 58.0743 15.6268 57.3329 15.6268C55.7771 15.6268 54.3546 16.9604 54.3546 18.6702C54.3546 20.3701 55.7771 21.693 57.3329 21.693C58.0743 21.693 58.6595 21.3694 58.9663 21.0039H59.012V21.439C59.012 22.5987 58.3774 23.2218 57.3539 23.2218C56.5194 23.2218 56.0017 22.6335 55.7881 22.1387L54.6002 22.6228C54.9426 23.4268 55.8492 24.4163 57.3539 24.4163C58.9554 24.4163 60.3067 23.4964 60.3067 21.258V15.8114H59.012V16.3025ZM57.4498 20.4985C56.5085 20.4985 55.7205 19.7292 55.7205 18.6702C55.7205 17.6014 56.5085 16.8214 57.4498 16.8214C58.3774 16.8214 59.1088 17.6014 59.1088 18.6702C59.1088 19.7292 58.3774 20.4985 57.4498 20.4985ZM75.2575 12.5942H71.9907V21.5085H73.3529V18.1309H75.2575C76.7704 18.1309 78.2541 17.062 78.2541 15.3621C78.2541 13.663 76.7667 12.5942 75.2575 12.5942ZM75.2931 16.8909H73.3529V13.8342H75.2931C76.3102 13.8342 76.8909 14.6587 76.8909 15.3621C76.8909 16.052 76.3102 16.8909 75.2931 16.8909ZM83.714 15.6099C82.7297 15.6099 81.7062 16.0342 81.2853 16.9747L82.4942 17.4694C82.7544 16.9747 83.2328 16.8142 83.7386 16.8142C84.4453 16.8142 85.162 17.2287 85.173 17.9606V18.0542C84.9265 17.9151 84.3987 17.7092 83.7496 17.7092C82.4476 17.7092 81.121 18.409 81.121 19.7149C81.121 20.9094 82.1874 21.6787 83.3862 21.6787C84.3029 21.6787 84.8087 21.2749 85.1264 20.8051H85.173V21.4942H86.4887V18.0747C86.4887 16.4942 85.2798 15.6099 83.714 15.6099ZM83.5496 20.4949C83.1041 20.4949 82.4832 20.2792 82.4832 19.7399C82.4832 19.0499 83.2575 18.7852 83.9276 18.7852C84.5275 18.7852 84.8087 18.9144 85.173 19.0847C85.0662 19.9102 84.3385 20.4949 83.5496 20.4949ZM91.2821 15.8051L89.7162 19.6695H89.6697L88.0509 15.8051H86.5818L89.0141 21.2054L87.6263 24.2104H89.0497L92.7977 15.8051H91.2821ZM79.0027 21.5085H80.3686V12.5942H79.0027V21.5085Z" fill="white"/>
<path d="M8.51842 5.4903C8.30386 5.70959 8.17969 6.05101 8.17969 6.49316V22.2643C8.17969 22.7065 8.30386 23.0479 8.51842 23.2672L8.57138 23.3153L17.6231 14.4813V14.2727L8.57138 5.4386L8.51842 5.4903Z" fill="url(#paint0_linear_1_26229)"/>
<path d="M20.6371 17.4275L17.6232 14.4813V14.2727L20.6407 11.3266L20.7083 11.3649L24.2819 13.3501C25.3017 13.9135 25.3017 14.8406 24.2819 15.4075L20.7083 17.3892L20.6371 17.4275Z" fill="url(#paint1_linear_1_26229)"/>
<path d="M20.7082 17.3891L17.623 14.377L8.51831 23.2672C8.85704 23.6148 9.40943 23.6567 10.0376 23.3091L20.7082 17.3891Z" fill="url(#paint2_linear_1_26229)"/>
<path d="M20.7082 11.3649L10.0376 5.44496C9.40943 5.10087 8.85704 5.14277 8.51831 5.49042L17.623 14.3771L20.7082 11.3649Z" fill="url(#paint3_linear_1_26229)"/>
<defs>
<linearGradient id="paint0_linear_1_26229" x1="16.8195" y1="22.4285" x2="4.85464" y2="10.1738" gradientUnits="userSpaceOnUse">
<stop stop-color="#00A0FF"/>
<stop offset="0.0066" stop-color="#00A1FF"/>
<stop offset="0.2601" stop-color="#00BEFF"/>
<stop offset="0.5122" stop-color="#00D2FF"/>
<stop offset="0.7604" stop-color="#00DFFF"/>
<stop offset="1" stop-color="#00E3FF"/>
</linearGradient>
<linearGradient id="paint1_linear_1_26229" x1="25.6099" y1="14.376" x2="7.93593" y2="14.376" gradientUnits="userSpaceOnUse">
<stop stop-color="#FFE000"/>
<stop offset="0.4087" stop-color="#FFBD00"/>
<stop offset="0.7754" stop-color="#FFA500"/>
<stop offset="1" stop-color="#FF9C00"/>
</linearGradient>
<linearGradient id="paint2_linear_1_26229" x1="19.0306" y1="12.7395" x2="2.80529" y2="-3.87892" gradientUnits="userSpaceOnUse">
<stop stop-color="#FF3A44"/>
<stop offset="1" stop-color="#C31162"/>
</linearGradient>
<linearGradient id="paint3_linear_1_26229" x1="6.22646" y1="28.5143" x2="13.4718" y2="21.0935" gradientUnits="userSpaceOnUse">
<stop stop-color="#32A071"/>
<stop offset="0.0685" stop-color="#2DA771"/>
<stop offset="0.4762" stop-color="#15CF74"/>
<stop offset="0.8009" stop-color="#06E775"/>
<stop offset="1" stop-color="#00F076"/>
</linearGradient>
</defs>
</svg>
