<svg width="71" height="26" viewBox="0 0 71 26" fill="none" xmlns="http://www.w3.org/2000/svg">
<path d="M57.6368 22.2479C57.4407 21.9647 57.3536 21.6706 57.3753 21.3656C57.3971 21.0388 57.5823 20.7556 57.9309 20.516C58.1487 20.3635 58.3992 20.2981 58.6824 20.3199C58.9874 20.3417 59.2598 20.4833 59.4994 20.7447C60.1094 21.4636 60.8065 22.0409 61.5908 22.4766C62.375 22.8905 63.3336 23.0975 64.4664 23.0975C64.9892 23.0757 65.5121 22.9886 66.0349 22.8361C66.5578 22.6836 66.9935 22.4222 67.342 22.0518C67.7124 21.6597 67.8976 21.1477 67.8976 20.516C67.8976 19.906 67.7124 19.4267 67.342 19.0781C66.9717 18.7078 66.4924 18.4137 65.9042 18.1958C65.316 17.9562 64.6734 17.7492 63.9762 17.575C63.2573 17.3789 62.5493 17.161 61.8522 16.9214C61.1551 16.66 60.5233 16.3441 59.9569 15.9738C59.4122 15.5816 58.9657 15.1024 58.6171 14.5359C58.2903 13.9477 58.1269 13.2397 58.1269 12.4119C58.1269 11.4316 58.3883 10.5819 58.9112 9.86304C59.4558 9.14413 60.1747 8.58861 61.0679 8.19648C61.9829 7.80434 62.9741 7.60828 64.0416 7.60828C64.6516 7.60828 65.2833 7.68452 65.9369 7.83702C66.6122 7.96773 67.2658 8.20737 67.8976 8.55593C68.5293 8.88271 69.0848 9.34019 69.5641 9.92839C69.7602 10.1462 69.8691 10.4186 69.8909 10.7453C69.9127 11.0721 69.7711 11.3662 69.4661 11.6276C69.2264 11.8019 68.9541 11.8782 68.6491 11.8564C68.3659 11.8346 68.1263 11.7257 67.9302 11.5296C67.4727 10.985 66.8954 10.5711 66.1983 10.2878C65.523 9.98286 64.7714 9.83036 63.9435 9.83036C63.4207 9.83036 62.9088 9.90661 62.4077 10.0591C61.9066 10.2116 61.4818 10.473 61.1333 10.8434C60.8065 11.1919 60.6431 11.6821 60.6431 12.3139C60.6649 12.9021 60.861 13.3813 61.2313 13.7517C61.6017 14.122 62.1027 14.427 62.7345 14.6667C63.3662 14.8845 64.0634 15.1024 64.8259 15.3202C65.523 15.4945 66.1874 15.7014 66.8192 15.9411C67.4727 16.1589 68.0609 16.453 68.5838 16.8234C69.1066 17.1937 69.5205 17.673 69.8255 18.2612C70.1305 18.8276 70.283 19.5465 70.283 20.4179C70.283 21.42 69.9998 22.2914 69.4334 23.0321C68.867 23.751 68.1154 24.3066 67.1786 24.6987C66.2637 25.069 65.2724 25.2542 64.205 25.2542C63.0068 25.2542 61.8195 25.0255 60.6431 24.568C59.4885 24.1105 58.4864 23.3371 57.6368 22.2479Z" fill="#171717"/>
<path d="M55.3064 16.4312C55.3064 18.1305 54.9251 19.6446 54.1627 20.9734C53.422 22.3023 52.409 23.348 51.1236 24.1105C49.8601 24.873 48.4332 25.2542 46.8429 25.2542C45.2526 25.2542 43.8147 24.873 42.5294 24.1105C41.2441 23.348 40.2202 22.3023 39.4577 20.9734C38.717 19.6446 38.3467 18.1305 38.3467 16.4312C38.3467 14.732 38.717 13.2179 39.4577 11.8891C40.2202 10.5602 41.2441 9.51447 42.5294 8.752C43.8147 7.98952 45.2526 7.60828 46.8429 7.60828C48.4332 7.60828 49.8601 7.98952 51.1236 8.752C52.409 9.51447 53.422 10.5602 54.1627 11.8891C54.9251 13.2179 55.3064 14.732 55.3064 16.4312ZM52.6922 16.4312C52.6922 15.1677 52.4308 14.0567 51.9079 13.0981C51.4069 12.1396 50.7097 11.388 49.8165 10.8434C48.9451 10.2987 47.9539 10.0264 46.8429 10.0264C45.7318 10.0264 44.7297 10.2987 43.8365 10.8434C42.9651 11.388 42.268 12.1396 41.7452 13.0981C41.2223 14.0567 40.9609 15.1677 40.9609 16.4312C40.9609 17.673 41.2223 18.7731 41.7452 19.7317C42.268 20.6902 42.9651 21.4527 43.8365 22.0191C44.7297 22.5638 45.7318 22.8361 46.8429 22.8361C47.9539 22.8361 48.9451 22.5638 49.8165 22.0191C50.7097 21.4527 51.4069 20.6902 51.9079 19.7317C52.4308 18.7731 52.6922 17.673 52.6922 16.4312Z" fill="#171717"/>
<path d="M33.7654 8.03308C34.1575 8.03308 34.4734 8.16379 34.7131 8.42521C34.9527 8.66485 35.0725 8.96984 35.0725 9.34019V18.2612C35.0725 20.4615 34.4516 22.1716 33.2099 23.3916C31.9899 24.5898 30.2798 25.1889 28.0795 25.1889C25.901 25.1889 24.1908 24.5898 22.9491 23.3916C21.7291 22.1716 21.1191 20.4615 21.1191 18.2612V9.34019C21.1191 8.96984 21.239 8.66485 21.4786 8.42521C21.74 8.16379 22.0559 8.03308 22.4262 8.03308C22.8184 8.03308 23.1343 8.16379 23.3739 8.42521C23.6135 8.66485 23.7334 8.96984 23.7334 9.34019V18.2612C23.7334 19.7426 24.1146 20.8645 24.8771 21.627C25.6396 22.3895 26.707 22.7707 28.0795 22.7707C29.4955 22.7707 30.5739 22.3895 31.3146 21.627C32.0771 20.8645 32.4583 19.7426 32.4583 18.2612V9.34019C32.4583 8.96984 32.5781 8.66485 32.8177 8.42521C33.0792 8.16379 33.3951 8.03308 33.7654 8.03308Z" fill="#171717"/>
<path d="M15.1101 0.745972C15.4804 0.745972 15.7854 0.876682 16.0251 1.1381C16.2865 1.37774 16.4172 1.68273 16.4172 2.05308V23.5877C16.4172 23.958 16.2865 24.2739 16.0251 24.5353C15.7854 24.7967 15.4804 24.9274 15.1101 24.9274C14.7179 24.9274 14.4021 24.7967 14.1624 24.5353C13.9228 24.2739 13.803 23.958 13.803 23.5877V20.4833L14.4238 20.2545C14.4238 20.7774 14.2605 21.3329 13.9337 21.9211C13.6069 22.4875 13.1603 23.0213 12.5939 23.5223C12.0275 24.0234 11.3521 24.4373 10.5679 24.7641C9.8054 25.0908 8.97757 25.2542 8.08438 25.2542C6.62478 25.2542 5.29588 24.873 4.0977 24.1105C2.92131 23.348 1.98455 22.3023 1.28742 20.9734C0.612083 19.6446 0.274414 18.1305 0.274414 16.4313C0.274414 14.7102 0.612083 13.1853 1.28742 11.8564C1.98455 10.5275 2.92131 9.49269 4.0977 8.752C5.2741 7.98952 6.5812 7.60828 8.01902 7.60828C8.934 7.60828 9.79451 7.76078 10.6006 8.06577C11.4066 8.37076 12.1037 8.78468 12.6919 9.30752C13.3019 9.83036 13.7812 10.4077 14.1297 11.0394C14.4783 11.6712 14.6526 12.303 14.6526 12.9347L13.803 12.7387V2.05308C13.803 1.68273 13.9228 1.37774 14.1624 1.1381C14.4021 0.876682 14.7179 0.745972 15.1101 0.745972ZM8.37848 22.8361C9.46773 22.8361 10.4263 22.5638 11.2541 22.0191C12.1037 21.4527 12.7573 20.6902 13.2148 19.7317C13.694 18.7514 13.9337 17.6512 13.9337 16.4313C13.9337 15.1895 13.694 14.0894 13.2148 13.1308C12.7573 12.1723 12.1037 11.4207 11.2541 10.876C10.4263 10.3096 9.46773 10.0264 8.37848 10.0264C7.31101 10.0264 6.35246 10.3096 5.50284 10.876C4.67501 11.4207 4.02145 12.1723 3.54218 13.1308C3.06291 14.0894 2.82327 15.1895 2.82327 16.4313C2.82327 17.6294 3.06291 18.7187 3.54218 19.699C4.02145 20.6576 4.67501 21.42 5.50284 21.9865C6.35246 22.5529 7.31101 22.8361 8.37848 22.8361Z" fill="#171717"/>
</svg>
